<svg xmlns="http://www.w3.org/2000/svg" width="212" height="184" viewBox="0 0 212 184">
    <g fill="#FFF" fill-rule="evenodd" opacity=".294">
        <path d="M65.846 157.714C29.54 157.714 0 128.234 0 92c0-36.232 29.539-65.714 65.846-65.714 25.598 0 49.075 14.992 59.812 38.193l-5.98 2.757c-9.662-20.884-30.792-34.379-53.832-34.379C33.17 32.857 6.585 59.39 6.585 92c0 32.614 26.585 59.143 59.261 59.143 22.836 0 43.883-13.324 53.629-33.942l5.955 2.8c-10.825 22.911-34.213 37.713-59.584 37.713"/>
        <path d="M65.846 32.857C44.061 32.857 26.338 59.39 26.338 92c0 32.614 17.723 59.143 39.508 59.143 21.785 0 39.508-26.529 39.508-59.143 0-32.61-17.723-59.143-39.508-59.143zm0 124.857c-25.416 0-46.092-29.48-46.092-65.714 0-36.232 20.676-65.714 46.092-65.714 25.417 0 46.092 29.482 46.092 65.714 0 36.235-20.675 65.714-46.092 65.714z"/>
        <path d="M65.846 32.857c-9.343 0-19.754 24.291-19.754 59.143 0 34.855 10.41 59.143 19.754 59.143C75.19 151.143 85.6 126.855 85.6 92c0-34.852-10.41-59.143-19.754-59.143zm0 124.857c-17.107 0-26.338-33.856-26.338-65.714 0-31.855 9.231-65.714 26.338-65.714S92.185 60.145 92.185 92c0 31.858-9.232 65.714-26.339 65.714z"/>
        <path d="M62.554 154.429h6.584V29.57h-6.584z"/>
        <path d="M19.754 52.571h92.184V46H19.754zM16.462 134.714h98.769v-6.571H16.46zM3.292 95.286h118.523v-6.572H3.292z"/>
        <path d="M145.263 157.714c-10.49 0-20.514-2.388-29.805-7.1l2.986-5.859c8.356 4.239 17.377 6.388 26.82 6.388 32.675 0 59.26-26.529 59.26-59.143 0-32.61-26.585-59.143-59.26-59.143-9.525 0-18.616 2.185-27.024 6.493l-3.01-5.846c9.348-4.79 19.452-7.218 30.033-7.218 36.308 0 65.846 29.482 65.846 65.714 0 36.235-29.538 65.714-65.846 65.714"/>
        <path d="M144.862 121.571c-9.077 0-16.462-7.37-16.462-16.428h6.585c0 5.434 4.431 9.857 9.877 9.857 5.445 0 9.876-4.423 9.876-9.857 0-4.416-3.522-6.361-9.751-9.417l-3.158-1.557C135.534 91.08 128.4 87.58 128.4 78.857c0-9.059 7.385-16.428 16.462-16.428 9.076 0 16.461 7.37 16.461 16.428h-6.585c0-5.434-4.431-9.857-9.876-9.857-5.446 0-9.877 4.423-9.877 9.857 0 4.416 3.522 6.361 9.751 9.417l3.158 1.557c6.295 3.089 13.43 6.588 13.43 15.312 0 9.059-7.386 16.428-16.462 16.428"/>
        <path d="M141.57 65.714h6.584v-9.857h-6.585zM141.57 128.143h6.584v-9.857h-6.585zM167.908 95.286h6.584v-6.572h-6.584zM167.908 82.143h6.584V75.57h-6.584zM167.908 108.429h6.584v-6.572h-6.584zM0 6.571h167.908V0H0zM174.492 6.571h6.585V0h-6.585zM187.662 6.571h6.584V0h-6.584zM200.83 6.571h6.585V0h-6.584zM16.462 184h6.584v-6.571h-6.584zM3.292 184h6.585v-6.571H3.292zM29.63 184h6.585v-6.571h-6.584zM42.8 184h167.908v-6.571H42.8z"/>
    </g>
</svg>
