<svg xmlns="http://www.w3.org/2000/svg" xmlns:xlink="http://www.w3.org/1999/xlink" width="138" height="26" viewBox="0 0 138 26">
    <defs>
        <path id="a" d="M12.368 24.618C5.538 24.618 0 19.107 0 12.309 0 5.511 5.538 0 12.368 0s12.368 5.511 12.368 12.309c0 6.798-5.538 12.309-12.368 12.309z"/>
    </defs>
    <g fill="none" fill-rule="evenodd">
        <g transform="translate(89.532 .563)">
            <mask id="b" fill="#fff">
                <use xlink:href="#a"/>
            </mask>
            <use fill="#FFC800" xlink:href="#a"/>
            <rect width="26.363" height="13.7" x="9.231" y="5.443" stroke="#FFF" stroke-width="2" mask="url(#b)" rx="6.85"/>
        </g>
        <ellipse cx="106.289" cy="12.882" fill="#FFF" rx="2.221" ry="2.222"/>
        <path fill="#FFF" d="M18.168 8.336c0 2.782-.821 4.93-2.464 6.446s-3.976 2.274-7 2.274H6.811v8.26H.076V.416h8.628c3.15 0 5.514.687 7.094 2.061 1.58 1.374 2.37 3.327 2.37 5.859zM6.811 11.572H8.04c1.012 0 1.816-.284 2.413-.852.597-.567.895-1.35.895-2.35 0-1.68-.932-2.52-2.796-2.52H6.81v5.722zm28.886 13.744l-1.227-4.667h-8.1l-1.262 4.667h-7.4L25.84.314h8.987l8.236 25.002h-7.367zM33.071 15.13l-1.074-4.087a149.82 149.82 0 0 1-.912-3.526c-.358-1.442-.594-2.475-.708-3.1a69.3 69.3 0 0 1-.605 2.862c-.301 1.328-.97 3.945-2.004 7.851h5.303zm19.49-5.484L56.86.417h7.298L55.955 15.59v9.725H49.17v-9.52L40.967.415h7.332l4.263 9.231zm14.29-9.23h8.697c3.388 0 5.903.502 7.545 1.507 1.643 1.005 2.464 2.569 2.464 4.692 0 1.396-.358 2.588-1.074 3.576-.716.988-1.66 1.624-2.83 1.908v.17c1.546.409 2.665 1.09 3.359 2.044.693.953 1.04 2.191 1.04 3.713 0 2.259-.85 4.039-2.55 5.339-1.699 1.3-4.015 1.95-6.948 1.95h-9.703V.416zm6.736 9.554h2.03c.965 0 1.713-.199 2.242-.596.528-.398.792-.988.792-1.771 0-1.397-1.057-2.095-3.171-2.095h-1.893V9.97zm0 4.922v5.228h2.37c2.103 0 3.155-.885 3.155-2.657 0-.828-.282-1.464-.844-1.907-.563-.443-1.379-.664-2.447-.664h-2.234zm52.62-5.246l4.297-9.23h7.298L129.6 15.59v9.725h-6.787v-9.52L114.611.415h7.333l4.263 9.231z"/>
    </g>
</svg>
