<svg xmlns="http://www.w3.org/2000/svg" width="85" height="85" viewBox="0 0 85 85">
    <g fill="#36163A" fill-rule="evenodd">
        <path d="M60.862 21.25a2.654 2.654 0 0 0-2.647 2.656 2.654 2.654 0 0 0 2.647 2.657 2.654 2.654 0 0 0 2.646-2.657 2.654 2.654 0 0 0-2.646-2.656zm0 7.969c-2.92 0-5.293-2.383-5.293-5.313 0-2.93 2.374-5.312 5.293-5.312 2.918 0 5.292 2.382 5.292 5.312s-2.374 5.313-5.292 5.313zM7.938 45.156H5.292V9.296c0-2.196 1.781-3.983 3.97-3.983h35.723v2.656H9.262c-.73 0-1.324.595-1.324 1.328v35.86M75.415 79.688H39.692V77.03h35.723c.73 0 1.323-.595 1.323-1.328v-35.86h2.647v35.86c0 2.197-1.781 3.984-3.97 3.984"/>
        <path d="M10.585 13.281h18.523v-2.656H10.585zM10.585 18.594h2.646v-2.657h-2.646zM15.877 18.594h2.646v-2.657h-2.646zM21.17 18.594h2.645v-2.657H21.17zM41.015 43.828h2.647v-2.656h-2.647zM55.57 74.375h18.522v-2.656H55.57zM71.446 69.063h2.646v-2.657h-2.646zM66.154 69.063H68.8v-2.657h-2.646zM60.862 69.063h2.646v-2.657h-2.646zM23.815 70.39c-2.918 0-5.292-2.382-5.292-5.312h2.646a2.654 2.654 0 0 0 2.646 2.656 2.654 2.654 0 0 0 2.647-2.656c0-.862-1.885-2.186-3.188-2.772-.792-.357-4.75-2.284-4.75-5.197 0-2.93 2.373-5.312 5.291-5.312 2.92 0 5.293 2.383 5.293 5.312h-2.646a2.654 2.654 0 0 0-2.647-2.656 2.654 2.654 0 0 0-2.646 2.656c0 .862 1.884 2.186 3.188 2.772.792.357 4.75 2.285 4.75 5.197 0 2.93-2.373 5.313-5.292 5.313"/>
        <path d="M22.492 53.125h2.646v-3.984h-2.646zM22.492 73.047h2.646v-3.984h-2.646zM31.754 62.422H34.4v-2.656h-2.646zM13.23 62.422h2.647v-2.656H13.23zM60.862 38.516c.402 0 .781.183 1.033.498l4.678 5.871 4.873-1.956v-7.07c0-.734.593-1.328 1.323-1.328h7.043l1.949-4.891-5.85-4.696a1.33 1.33 0 0 1 0-2.075l5.85-4.696-1.949-4.892h-7.043c-.73 0-1.323-.593-1.323-1.328v-7.07l-4.873-1.956L61.895 8.8c-.502.63-1.565.63-2.067 0L55.15 2.927l-4.873 1.957v7.07c0 .734-.593 1.327-1.323 1.327H41.91l-1.949 4.892 5.85 4.696a1.33 1.33 0 0 1 0 2.075l-5.85 4.696 1.95 4.891h7.042c.73 0 1.323.594 1.323 1.328v7.07l4.873 1.956 4.678-5.871a1.322 1.322 0 0 1 1.034-.498zm5.292 9.297c-.393 0-.777-.177-1.033-.499l-4.26-5.344-4.258 5.344a1.326 1.326 0 0 1-1.526.404l-6.615-2.656a1.331 1.331 0 0 1-.831-1.234v-6.64h-6.616c-.54 0-1.026-.331-1.229-.836l-2.646-6.64a1.332 1.332 0 0 1 .402-1.53l5.324-4.276-5.324-4.275a1.332 1.332 0 0 1-.402-1.53l2.646-6.64a1.325 1.325 0 0 1 1.23-.836h6.615v-6.64c0-.544.33-1.031.83-1.234L55.078.094a1.326 1.326 0 0 1 1.526.404l4.259 5.344L65.12.498a1.326 1.326 0 0 1 1.525-.404l6.615 2.657c.502.203.831.69.831 1.233v6.641h6.616c.54 0 1.026.33 1.229.835l2.646 6.641a1.332 1.332 0 0 1-.402 1.53l-5.324 4.275 5.324 4.275c.455.366.618.987.402 1.53l-2.646 6.641a1.325 1.325 0 0 1-1.23.836h-6.615v6.64c0 .543-.33 1.03-.83 1.234l-6.616 2.656a1.333 1.333 0 0 1-.492.094z"/>
        <path d="M60.862 14.61c-5.108 0-9.262 4.171-9.262 9.296 0 5.125 4.154 9.297 9.262 9.297 5.107 0 9.261-4.172 9.261-9.297 0-5.125-4.154-9.297-9.261-9.297zm0 21.25c-6.566 0-11.908-5.362-11.908-11.954 0-6.591 5.342-11.953 11.908-11.953 6.565 0 11.907 5.362 11.907 11.953 0 6.592-5.342 11.953-11.907 11.953zM23.815 75.703c.403 0 .782.183 1.034.498l4.678 5.872 4.873-1.957v-7.07c0-.734.593-1.327 1.323-1.327h7.043l1.949-4.892-5.85-4.696a1.33 1.33 0 0 1 0-2.075l5.85-4.696-1.95-4.891h-7.042c-.73 0-1.323-.594-1.323-1.328v-7.07l-4.873-1.956-4.678 5.871c-.502.631-1.565.631-2.067 0l-4.678-5.871-4.873 1.956v7.07c0 .734-.593 1.328-1.323 1.328H4.865L2.916 55.36l5.85 4.696a1.33 1.33 0 0 1 0 2.075l-5.85 4.696 1.949 4.892h7.043c.73 0 1.323.593 1.323 1.328v7.07l4.873 1.956 4.678-5.872a1.322 1.322 0 0 1 1.033-.498zM29.108 85c-.393 0-.777-.177-1.034-.498l-4.259-5.344-4.259 5.344a1.324 1.324 0 0 1-1.525.404l-6.615-2.657a1.331 1.331 0 0 1-.831-1.233v-6.641H3.969c-.54 0-1.026-.33-1.229-.835L.094 66.899a1.332 1.332 0 0 1 .402-1.53l5.324-4.275-5.324-4.275a1.332 1.332 0 0 1-.402-1.53l2.646-6.641a1.325 1.325 0 0 1 1.23-.836h6.615v-6.64c0-.543.33-1.03.83-1.234l6.616-2.656a1.326 1.326 0 0 1 1.525.404l4.26 5.344 4.258-5.344a1.326 1.326 0 0 1 1.526-.404l6.615 2.656c.502.203.831.69.831 1.234v6.64h6.616c.54 0 1.026.331 1.229.836l2.646 6.64a1.332 1.332 0 0 1-.402 1.53l-5.324 4.276 5.324 4.275c.455.365.617.987.402 1.53l-2.646 6.64a1.325 1.325 0 0 1-1.23.836h-6.615v6.64c0 .544-.33 1.031-.83 1.234L29.6 84.906a1.333 1.333 0 0 1-.492.094z"/>
    </g>
</svg>
