<svg xmlns="http://www.w3.org/2000/svg" width="84" height="90" viewBox="0 0 84 90">
    <g fill="#36163A" fill-rule="evenodd">
        <path d="M16.7 42.162h-2.782a5.569 5.569 0 0 0-5.563-5.563 5.569 5.569 0 0 0-5.563 5.563H.01c0-4.602 3.743-8.345 8.345-8.345s8.344 3.743 8.344 8.345M31.998 89.448c-6.135 0-11.126-4.992-11.126-11.126h2.781c0 4.602 3.743 8.344 8.345 8.344s8.344-3.742 8.344-8.344V75.54h2.782v2.782c0 6.134-4.992 11.126-11.126 11.126M40.342 39.38h2.782v-6.954h-2.782z"/>
        <path d="M83.456 42.162h-2.781c0-21.472-17.47-38.942-38.942-38.942S2.792 20.69 2.792 42.162H.01C.01 19.156 18.727.439 41.733.439s41.723 18.717 41.723 41.723"/>
        <path d="M69.548 42.162h-2.781c0-21.837-10.996-38.942-25.034-38.942C27.695 3.22 16.7 20.325 16.7 42.162h-2.781C13.918 18.376 25.876.439 41.733.439c15.858 0 27.815 17.937 27.815 41.723"/>
        <path d="M52.86 42.162h-2.782c0-28.743-4.495-38.942-8.345-38.942-3.85 0-8.344 10.199-8.344 38.942h-2.782c0-19.034 1.93-41.723 11.126-41.723S52.86 23.128 52.86 42.162"/>
        <path d="M33.389 42.162h-2.782a6.962 6.962 0 0 0-6.954-6.954 6.962 6.962 0 0 0-6.954 6.954h-2.781c0-5.367 4.368-9.736 9.735-9.736 5.367 0 9.736 4.369 9.736 9.736M69.548 42.162h-2.781a6.962 6.962 0 0 0-6.954-6.954 6.962 6.962 0 0 0-6.954 6.954h-2.781c0-5.367 4.368-9.736 9.735-9.736 5.367 0 9.735 4.369 9.735 9.736"/>
        <path d="M83.456 42.162h-2.781a5.569 5.569 0 0 0-5.564-5.563 5.569 5.569 0 0 0-5.563 5.563h-2.781c0-4.602 3.742-8.345 8.344-8.345 4.603 0 8.345 3.743 8.345 8.345M52.86 42.162h-2.782c0-4.602-3.743-8.345-8.345-8.345s-8.344 3.743-8.344 8.345h-2.782c0-6.135 4.991-11.126 11.126-11.126S52.86 36.027 52.86 42.162M40.342 72.759h2.782v-4.173h-2.782zM40.342 46.334h2.782v-4.172h-2.782z"/>
        <path d="M41.733 69.977a6.962 6.962 0 0 1-6.954-6.954h2.782c0 2.3 1.872 4.173 4.172 4.173s4.172-1.872 4.172-4.173c0-1.474-2.828-3.434-4.74-4.294-.654-.292-6.386-2.971-6.386-6.832a6.962 6.962 0 0 1 6.954-6.954 6.962 6.962 0 0 1 6.954 6.954h-2.782c0-2.3-1.872-4.172-4.172-4.172a4.177 4.177 0 0 0-4.172 4.172c0 1.474 2.829 3.434 4.74 4.295.655.292 6.386 2.97 6.386 6.831a6.962 6.962 0 0 1-6.954 6.954"/>
    </g>
</svg>
