<svg xmlns="http://www.w3.org/2000/svg" width="79" height="79" viewBox="0 0 79 79">
    <g fill="#36163A" fill-rule="evenodd">
        <path d="M38.266 79h2.468V28.39h-2.468z"/>
        <path d="M14.813 27.156h49.374V2.47H14.813v24.687zm50.609 2.469H13.578a1.234 1.234 0 0 1-1.234-1.234V1.234c0-.682.553-1.234 1.234-1.234h51.844c.681 0 1.234.552 1.234 1.234v27.157c0 .682-.553 1.234-1.234 1.234z"/>
        <path d="M22.219 16.047h2.468v-2.469H22.22zM27.156 16.047h2.469v-2.469h-2.469zM54.313 16.047h2.468v-2.469h-2.468zM49.375 16.047h2.469v-2.469h-2.469zM56.781 24.688h-9.875v-2.47h9.364l2.98-2.979v-3.192h2.469v3.703c0 .328-.13.642-.362.873l-3.703 3.703c-.23.232-.546.361-.873.361M32.094 24.688h-9.875c-.327 0-.642-.13-.873-.362l-3.703-3.703a1.229 1.229 0 0 1-.362-.873v-3.703h2.469v3.192l2.98 2.98h9.364v2.468M19.75 13.578h-2.469V9.875c0-.328.13-.642.362-.873L21.346 5.3c.23-.232.546-.362.873-.362h9.875v2.47H22.73l-2.98 2.979v3.192M61.719 13.578H59.25v-3.192l-2.98-2.98h-9.364V4.938h9.875c.327 0 .642.13.873.361l3.703 3.703c.232.231.362.545.362.873v3.703M39.5 9.875a4.942 4.942 0 0 0-4.938 4.938A4.942 4.942 0 0 0 39.5 19.75a4.942 4.942 0 0 0 4.938-4.938A4.942 4.942 0 0 0 39.5 9.875zm0 12.344c-4.085 0-7.406-3.322-7.406-7.407 0-4.084 3.321-7.406 7.406-7.406 4.085 0 7.406 3.322 7.406 7.407 0 4.084-3.321 7.406-7.406 7.406zM29.625 71.594H13.578V67.89c-.002-.07-.069-2.027-2.107-4.065l-8.64-8.64C.031 52.385 0 49.496 0 49.374v-19.75a4.942 4.942 0 0 1 4.938-4.938 4.942 4.942 0 0 1 4.937 4.938V39.5H7.406v-9.875a2.471 2.471 0 0 0-2.468-2.469 2.471 2.471 0 0 0-2.47 2.469v19.75c.002.07.07 2.027 2.108 4.065l8.64 8.64c2.799 2.799 2.83 5.688 2.83 5.81v1.235h11.11v-8.64c0-.028-.044-3.237-2.107-5.3L13.067 43.203h-.723a2.471 2.471 0 0 0-2.469 2.469v.723l8.279 8.28-1.745 1.745-9.003-9.003v-1.745a4.942 4.942 0 0 1 4.938-4.938h1.745L26.795 53.44c2.798 2.798 2.83 6.872 2.83 7.044v11.11M65.422 71.594H49.375v-11.11c0-.172.032-4.246 2.83-7.044l12.706-12.706h1.745a4.942 4.942 0 0 1 4.938 4.938v1.745L62.59 56.42l-1.745-1.746 8.279-8.279v-.723a2.471 2.471 0 0 0-2.469-2.469h-.723L53.95 55.185c-2.083 2.084-2.107 5.269-2.107 5.3v8.64h11.11v-1.234c0-.123.031-3.012 2.83-5.81l8.64-8.641c2.038-2.038 2.106-3.996 2.107-4.079V29.625a2.471 2.471 0 0 0-2.469-2.469 2.471 2.471 0 0 0-2.468 2.469V39.5h-2.469v-9.875a4.942 4.942 0 0 1 4.938-4.938A4.942 4.942 0 0 1 79 29.625v19.75c0 .122-.032 3.012-2.83 5.81l-8.641 8.64c-2.038 2.039-2.106 3.996-2.107 4.08v3.689M45.672 39.5h7.406a2.471 2.471 0 0 0 2.469-2.469v-2.468H48.14a2.471 2.471 0 0 0-2.47 2.468V39.5zm7.406 2.469h-8.64a1.234 1.234 0 0 1-1.235-1.235v-3.703a4.942 4.942 0 0 1 4.938-4.937h8.64c.682 0 1.235.552 1.235 1.234v3.703a4.942 4.942 0 0 1-4.938 4.938z"/>
        <path d="M23.453 39.5v2.469a2.471 2.471 0 0 0 2.469 2.468h7.406V41.97A2.471 2.471 0 0 0 30.86 39.5h-7.406zm11.11 7.406h-8.641a4.942 4.942 0 0 1-4.938-4.937v-3.703c0-.683.553-1.235 1.235-1.235h8.64a4.942 4.942 0 0 1 4.938 4.938v3.703c0 .682-.553 1.234-1.234 1.234zM67.89 79h-2.468v-7.406H49.375V79h-2.469v-7.406a2.471 2.471 0 0 1 2.469-2.469h16.047a2.471 2.471 0 0 1 2.469 2.469V79M32.094 79h-2.469v-7.406H13.578V79H11.11v-7.406a2.471 2.471 0 0 1 2.47-2.469h16.046a2.471 2.471 0 0 1 2.469 2.469V79"/>
    </g>
</svg>
