<svg xmlns="http://www.w3.org/2000/svg" width="48" height="48" viewBox="0 0 48 48">
    <g fill="#FFC800" fill-rule="evenodd">
        <path d="M44.925 13a23.15 23.15 0 0 1 2.563 10.615 23.16 23.16 0 0 1-3.35 12.023H31.32C25.074 35.638 20 30.56 20 24.32 20 18.067 25.067 13 31.32 13h13.605zm-13.25 15.881c2.37 0 4.292-1.902 4.292-4.248s-1.922-4.248-4.291-4.248c-2.37 0-4.291 1.902-4.291 4.248s1.92 4.248 4.29 4.248z"/>
        <path d="M42.875 9.23C38.507 3.62 31.631 0 23.898 0 10.7 0 0 10.54 0 23.538c0 12.999 10.7 23.538 23.898 23.538 7.065 0 13.415-3.02 17.79-7.822H31.627c-8.29 0-15.012-6.738-15.012-15.012 0-8.29 6.72-15.011 15.012-15.011h11.248z"/>
    </g>
</svg>
