<svg xmlns="http://www.w3.org/2000/svg" width="28" height="28" viewBox="0 0 28 28">
    <g fill="#FFF" fill-rule="evenodd">
        <path fill="none" d="M-2-2h32v32H-2z"/>
        <path fill-opacity=".7" d="M14 .667C6.64.667.667 6.64.667 14S6.64 27.333 14 27.333 27.333 21.36 27.333 14 21.36.667 14 .667zm1.333 22.666h-2.666v-2.666h2.666v2.666zM18.093 13l-1.2 1.227c-.96.973-1.56 1.773-1.56 3.773h-2.666v-.667c0-1.466.6-2.8 1.56-3.773l1.653-1.68c.493-.48.787-1.147.787-1.88 0-1.467-1.2-2.667-2.667-2.667A2.675 2.675 0 0 0 11.333 10H8.667A5.332 5.332 0 0 1 14 4.667 5.332 5.332 0 0 1 19.333 10c0 1.173-.48 2.24-1.24 3z"/>
    </g>
</svg>
