<svg xmlns="http://www.w3.org/2000/svg" xmlns:xlink="http://www.w3.org/1999/xlink" width="367" height="68" viewBox="0 0 367 68">
    <defs>
        <ellipse id="a" cx="6.574" cy="7.002" rx="6.06" ry="6.043"/>
        <path id="c" d="M.924.225h291.124v410.848H.924z"/>
    </defs>
    <g fill="none" fill-rule="evenodd">
        <path fill="#FFF" fill-rule="nonzero" d="M47.553 20.573c0 7.185-2.122 12.731-6.373 16.647-4.249 3.915-10.282 5.87-18.102 5.87h-4.893v21.33H.765V.125h22.313c8.145 0 14.26 1.774 18.347 5.32 4.085 3.55 6.128 8.59 6.128 15.128zm-29.368 8.356h3.175c2.616 0 4.696-.733 6.24-2.199 1.546-1.466 2.315-3.488 2.315-6.07 0-4.337-2.41-6.507-7.231-6.507h-4.496v14.776h-.003zM95.234 64.685l-3.175-12.051H71.113L67.85 64.685H48.71L69.742.125h23.24l21.3 64.56h-19.05zm-6.792-26.3l-2.778-10.553c-.648-2.345-1.433-5.379-2.36-9.103-.927-3.724-1.537-6.39-1.83-8.003-.264 1.496-.786 3.958-1.566 7.387-.78 3.43-2.507 10.19-5.181 20.273h13.715zM139.957 23.96L151.072.125h18.874l-21.212 39.182V64.42h-17.55V39.836L109.97.125h18.962zM181.887.125h22.488c8.76 0 15.265 1.296 19.514 3.891 4.25 2.596 6.373 6.636 6.373 12.118 0 3.605-.927 6.686-2.778 9.236-1.85 2.55-4.29 4.194-7.32 4.925v.44c3.999 1.055 6.894 2.816 8.69 5.279 1.792 2.462 2.69 5.657 2.69 9.586 0 5.833-2.198 10.431-6.593 13.786-4.395 3.357-10.385 5.036-17.97 5.036h-25.094V.125zm17.42 24.671h5.247c2.498 0 4.432-.512 5.801-1.54 1.37-1.028 2.05-2.55 2.05-4.574 0-3.605-2.732-5.409-8.203-5.409h-4.893v11.523h-.002zm0 12.71v13.502h6.131c5.436 0 8.156-2.284 8.156-6.861 0-2.14-.727-3.782-2.184-4.925-1.455-1.142-3.564-1.716-6.326-1.716h-5.777zM337.06 23.96L348.175.125h18.874l-21.212 39.182V64.42h-17.553V39.836L307.074.125h18.962z"/>
        <g transform="translate(239.598 .125)">
            <ellipse cx="34.661" cy="33.49" fill="#FFC800" rx="33.774" ry="33.49"/>
            <path fill="#FFF" fill-rule="nonzero" d="M44.782 52.697c-10.598 0-19.217-8.707-19.217-19.273 0-10.567 8.619-19.274 19.217-19.274h17.54a58.121 58.121 0 0 0-3.7-4.39h-13.84c-13.024 0-23.62 10.677-23.62 23.664 0 12.986 10.598 23.664 23.62 23.664h13.923a58.022 58.022 0 0 0 3.678-4.39h-17.6z"/>
            <g transform="translate(39.953 26.563)">
                <mask id="b" fill="#fff">
                    <use xlink:href="#a"/>
                </mask>
                <g mask="url(#b)">
                    <g transform="translate(-178.458 -190.25)">
                        <mask id="d" fill="#fff">
                            <use xlink:href="#c"/>
                        </mask>
                        <path fill="#FFF" fill-rule="nonzero" d="M176.577 188.571h17.127v17.08h-17.127z" mask="url(#d)"/>
                    </g>
                </g>
            </g>
        </g>
    </g>
</svg>
