<?xml version="1.0" encoding="utf-8"?>
<!-- Generator: Adobe Illustrator 16.0.0, SVG Export Plug-In . SVG Version: 6.00 Build 0)  -->
<!DOCTYPE svg PUBLIC "-//W3C//DTD SVG 1.1//EN" "http://www.w3.org/Graphics/SVG/1.1/DTD/svg11.dtd">
<svg version="1.1" id="Layer_1" xmlns="http://www.w3.org/2000/svg" xmlns:xlink="http://www.w3.org/1999/xlink" x="0px" y="0px"
	 width="1106px" height="614px" viewBox="0 0 1106 614" enable-background="new 0 0 1106 614" xml:space="preserve">
<g>
	<defs>
		<rect id="SVGID_1_" width="1106" height="614"/>
	</defs>
	<clipPath id="SVGID_2_">
		<use xlink:href="#SVGID_1_"  overflow="visible"/>
	</clipPath>
	<g clip-path="url(#SVGID_2_)">
		<g opacity="0.06">
			<path fill="#FFFFFF" d="M14-1970c699.191,0,1266,566.808,1266,1266C1280-4.809,713.191,562,14,562
				C-685.192,562-1252-4.809-1252-704C-1252-1403.192-685.192-1970,14-1970 M14-2005c-88.249,0-176.452,8.893-262.16,26.431
				c-83.547,17.096-165.728,42.607-244.259,75.822c-77.097,32.609-151.455,72.969-221.007,119.958
				c-68.883,46.536-133.656,99.979-192.52,158.843s-112.307,123.637-158.843,192.52c-46.989,69.553-87.349,143.91-119.958,221.007
				c-33.215,78.531-58.726,160.711-75.822,244.259C-1278.107-880.452-1287-792.249-1287-704s8.893,176.451,26.431,262.16
				c17.096,83.547,42.607,165.728,75.822,244.259c32.609,77.097,72.969,151.455,119.958,221.007
				c46.536,68.883,99.979,133.656,158.843,192.52s123.637,112.307,192.52,158.844c69.552,46.988,143.91,87.348,221.007,119.957
				c78.531,33.216,160.711,58.727,244.259,75.822C-162.452,588.107-74.249,597,14,597s176.451-8.893,262.16-26.432
				c83.547-17.096,165.728-42.606,244.258-75.822c77.098-32.609,151.455-72.969,221.008-119.957
				c68.882-46.537,133.655-99.979,192.52-158.844s112.307-123.637,158.844-192.52c46.988-69.552,87.348-143.91,119.957-221.007
				c33.216-78.531,58.727-160.711,75.822-244.259C1306.107-527.549,1315-615.751,1315-704s-8.893-176.452-26.432-262.16
				c-17.096-83.547-42.606-165.728-75.822-244.259c-32.609-77.097-72.969-151.454-119.957-221.007
				c-46.537-68.883-99.979-133.656-158.844-192.52s-123.638-112.307-192.52-158.843c-69.553-46.989-143.911-87.349-221.008-119.958
				c-78.53-33.215-160.711-58.726-244.258-75.822C190.451-1996.107,102.249-2005,14-2005L14-2005z"/>
		</g>
		<g opacity="0.3">
			<path fill="#2B212D" d="M14-1968c85.762,0,171.47,8.64,254.742,25.68c81.155,16.607,160.982,41.386,237.263,73.65
				c74.896,31.678,147.135,70.888,214.708,116.54c66.932,45.218,129.87,97.147,187.069,154.347s109.129,120.139,154.348,187.07
				c45.651,67.573,84.86,139.811,116.54,214.708c32.264,76.281,57.043,156.108,73.65,237.263C1269.36-875.47,1278-789.762,1278-704
				c0,85.762-8.64,171.469-25.68,254.742c-16.607,81.155-41.387,160.982-73.65,237.263c-31.68,74.896-70.889,147.135-116.54,214.708
				c-45.219,66.932-97.148,129.871-154.348,187.07c-57.199,57.199-120.138,109.128-187.069,154.346
				c-67.573,45.652-139.812,84.861-214.708,116.54c-76.281,32.265-156.108,57.044-237.263,73.651C185.47,551.36,99.762,560,14,560
				c-85.762,0-171.47-8.64-254.742-25.68c-81.155-16.607-160.982-41.387-237.263-73.651
				c-74.896-31.679-147.135-70.888-214.708-116.54c-66.932-45.218-129.871-97.147-187.07-154.346
				c-57.199-57.199-109.129-120.139-154.347-187.07c-45.651-67.573-84.861-139.811-116.54-214.708
				c-32.264-76.281-57.043-156.108-73.65-237.263C-1241.36-532.531-1250-618.238-1250-704c0-85.762,8.64-171.47,25.68-254.742
				c16.607-81.155,41.386-160.982,73.65-237.263c31.678-74.896,70.888-147.135,116.54-214.708
				c45.218-66.932,97.147-129.871,154.347-187.07s120.139-109.129,187.07-154.347c67.573-45.651,139.811-84.861,214.708-116.54
				c76.281-32.264,156.108-57.043,237.263-73.65C-157.47-1959.36-71.762-1968,14-1968 M14-1970c-699.192,0-1266,566.808-1266,1266
				C-1252-4.809-685.192,562,14,562C713.191,562,1280-4.809,1280-704C1280-1403.192,713.191-1970,14-1970L14-1970z"/>
		</g>
	</g>
</g>
</svg>
