<?xml version="1.0" encoding="utf-8"?>
<!-- Generator: Adobe Illustrator 16.0.0, SVG Export Plug-In . SVG Version: 6.00 Build 0)  -->
<!DOCTYPE svg PUBLIC "-//W3C//DTD SVG 1.1//EN" "http://www.w3.org/Graphics/SVG/1.1/DTD/svg11.dtd">
<svg version="1.1" id="Layer_1" xmlns="http://www.w3.org/2000/svg" xmlns:xlink="http://www.w3.org/1999/xlink" x="0px" y="0px"
	 width="984px" height="644px" viewBox="0 0 984 644" enable-background="new 0 0 984 644" xml:space="preserve">
<g>
	<defs>
		<rect id="SVGID_1_" width="984" height="644"/>
	</defs>
	<clipPath id="SVGID_2_">
		<use xlink:href="#SVGID_1_"  overflow="visible"/>
	</clipPath>
	<g clip-path="url(#SVGID_2_)">
		<g opacity="0.06">
			<path fill="#FFFFFF" d="M1111,36c83.545,0,167.026,8.415,248.126,25.01c79.021,16.17,156.749,40.298,231.023,71.714
				c72.935,30.849,143.282,69.033,209.089,113.491c65.191,44.042,126.496,94.624,182.21,150.337s106.294,117.018,150.337,182.209
				c44.458,65.808,82.643,136.155,113.491,209.089c31.415,74.275,55.544,152.003,71.714,231.023
				c16.596,81.101,25.01,164.582,25.01,248.127s-8.414,167.026-25.01,248.126c-16.17,79.021-40.299,156.749-71.714,231.023
				c-30.849,72.935-69.033,143.282-113.491,209.089c-44.043,65.191-94.623,126.496-150.337,182.21s-117.019,106.294-182.21,150.337
				c-65.807,44.458-136.154,82.643-209.089,113.491c-74.274,31.415-152.002,55.544-231.023,71.714
				c-81.1,16.596-164.581,25.01-248.126,25.01s-167.026-8.414-248.127-25.01c-79.021-16.17-156.748-40.299-231.023-71.714
				c-72.934-30.849-143.281-69.033-209.089-113.491c-65.191-44.043-126.495-94.623-182.208-150.337
				c-55.714-55.714-106.295-117.019-150.337-182.21c-44.458-65.807-82.642-136.154-113.491-209.089
				c-31.416-74.274-55.543-152.002-71.714-231.023C-111.585,1434.026-120,1350.545-120,1267s8.415-167.026,25.01-248.127
				c16.17-79.021,40.298-156.748,71.714-231.023C7.572,714.916,45.756,644.568,90.214,578.761
				c44.042-65.191,94.623-126.495,150.337-182.209c55.714-55.714,117.018-106.295,182.208-150.337
				c65.808-44.458,136.156-82.642,209.089-113.491c74.275-31.416,152.003-55.543,231.023-71.714C943.974,44.415,1027.455,36,1111,36
				 M1111,1C411.808,1-155,567.808-155,1267c0,699.191,566.808,1266,1266,1266c699.191,0,1266-566.809,1266-1266
				C2377,567.808,1810.191,1,1111,1L1111,1z"/>
		</g>
		<g opacity="0.3">
			<path fill="#2B212D" d="M1111,1c699.191,0,1266,566.808,1266,1266c0,699.191-566.809,1266-1266,1266
				c-699.192,0-1266-566.809-1266-1266C-155,567.808,411.808,1,1111,1 M1111-1c-86.031,0-172.009,8.667-255.544,25.761
				c-81.414,16.66-161.495,41.518-238.02,73.885c-75.135,31.779-147.602,71.113-215.389,116.909
				c-67.143,45.36-130.28,97.454-187.659,154.833c-57.379,57.379-109.473,120.517-154.833,187.659
				C13.76,625.835-25.574,698.302-57.354,773.437c-32.367,76.524-57.226,156.605-73.885,238.02
				C-148.333,1094.991-157,1180.969-157,1267c0,86.03,8.667,172.008,25.761,255.544c16.66,81.413,41.518,161.495,73.885,238.019
				c31.779,75.135,71.113,147.603,116.909,215.389c45.36,67.143,97.454,130.281,154.833,187.66
				c57.379,57.379,120.517,109.473,187.659,154.833c67.787,45.796,140.254,85.13,215.389,116.909
				c76.524,32.367,156.605,57.226,238.02,73.885C938.991,2526.332,1024.969,2535,1111,2535c86.03,0,172.008-8.668,255.544-25.762
				c81.413-16.659,161.495-41.518,238.02-73.885c75.134-31.779,147.602-71.113,215.389-116.909
				c67.143-45.36,130.28-97.454,187.659-154.833s109.473-120.518,154.833-187.66c45.796-67.786,85.13-140.254,116.909-215.389
				c32.367-76.523,57.226-156.605,73.885-238.019C2370.333,1439.008,2379,1353.03,2379,1267c0-86.031-8.667-172.009-25.762-255.544
				c-16.659-81.414-41.518-161.495-73.885-238.02c-31.779-75.135-71.113-147.602-116.909-215.389
				c-45.36-67.143-97.454-130.28-154.833-187.659s-120.517-109.473-187.659-154.833c-67.787-45.796-140.255-85.13-215.389-116.909
				c-76.524-32.367-156.606-57.226-238.02-73.885C1283.008,7.667,1197.03-1,1111-1L1111-1z"/>
		</g>
	</g>
</g>
</svg>
