<svg xmlns="http://www.w3.org/2000/svg" width="55" height="54" viewBox="0 0 55 54">
    <g fill="#A9A2AA" fill-rule="evenodd">
        <path d="M6.772 27.694h5.81v-1.66h-5.81z"/>
        <path d="M4.282 25.204a1.661 1.661 0 1 0 1.66 1.66c0-.915-.745-1.66-1.66-1.66zm0 4.98a3.324 3.324 0 0 1-3.32-3.32c0-1.83 1.488-3.32 3.32-3.32 1.83 0 3.32 1.49 3.32 3.32 0 1.831-1.49 3.32-3.32 3.32zM13.413 20.775l-4.98-3.32.92-1.382 4.981 3.32-.921 1.382"/>
        <path d="M7.602 13.583a1.661 1.661 0 1 0 1.66 1.66c0-.916-.744-1.66-1.66-1.66zm0 4.98a3.324 3.324 0 0 1-3.32-3.32c0-1.83 1.489-3.32 3.32-3.32 1.831 0 3.32 1.49 3.32 3.32 0 1.831-1.489 3.32-3.32 3.32zM15.903 5.282a1.661 1.661 0 1 0 1.66 1.66c0-.916-.744-1.66-1.66-1.66zm0 4.98a3.324 3.324 0 0 1-3.32-3.32c0-1.83 1.489-3.32 3.32-3.32 1.831 0 3.32 1.49 3.32 3.32 0 1.831-1.489 3.32-3.32 3.32z"/>
        <path d="M19.223 14.503l-3.32-4.98 1.381-.921 3.32 4.98-1.38.921M42.466 27.694h5.81v-1.66h-5.81z"/>
        <path d="M50.767 25.204a1.661 1.661 0 1 0 1.66 1.66c0-.915-.744-1.66-1.66-1.66zm0 4.98a3.324 3.324 0 0 1-3.32-3.32c0-1.83 1.489-3.32 3.32-3.32 1.831 0 3.32 1.49 3.32 3.32 0 1.831-1.489 3.32-3.32 3.32zM40.897 20.775l-.921-1.382 4.98-3.32.922 1.382-4.98 3.32"/>
        <path d="M47.447 13.583a1.661 1.661 0 1 0 1.66 1.66c0-.916-.745-1.66-1.66-1.66zm0 4.98a3.324 3.324 0 0 1-3.32-3.32c0-1.83 1.489-3.32 3.32-3.32 1.831 0 3.32 1.49 3.32 3.32 0 1.831-1.489 3.32-3.32 3.32zM39.146 5.282a1.661 1.661 0 1 0 1.66 1.66c0-.916-.745-1.66-1.66-1.66zm0 4.98a3.324 3.324 0 0 1-3.32-3.32c0-1.83 1.489-3.32 3.32-3.32 1.831 0 3.32 1.49 3.32 3.32 0 1.831-1.489 3.32-3.32 3.32zM26.694 11.922h1.66v-5.81h-1.66z"/>
        <path d="M35.546 14.503l-1.38-.92 3.32-4.981 1.38.92-3.32 4.981M27.524 1.961a1.661 1.661 0 1 0 1.66 1.66c0-.915-.744-1.66-1.66-1.66zm0 4.98a3.324 3.324 0 0 1-3.32-3.32c0-1.83 1.49-3.32 3.32-3.32 1.832 0 3.32 1.49 3.32 3.32 0 1.832-1.488 3.32-3.32 3.32zM44.957 39.038l-4.981-3.32.921-1.383 4.98 3.32-.92 1.383"/>
        <path d="M47.447 36.825a1.661 1.661 0 1 0 1.66 1.66c0-.915-.745-1.66-1.66-1.66zm0 4.981a3.324 3.324 0 0 1-3.32-3.32c0-1.83 1.489-3.32 3.32-3.32 1.831 0 3.32 1.49 3.32 3.32 0 1.83-1.489 3.32-3.32 3.32zM39.146 45.126a1.661 1.661 0 1 0 1.66 1.66c0-.915-.745-1.66-1.66-1.66zm0 4.981a3.324 3.324 0 0 1-3.32-3.32c0-1.83 1.489-3.32 3.32-3.32 1.831 0 3.32 1.49 3.32 3.32 0 1.83-1.489 3.32-3.32 3.32z"/>
        <path d="M37.486 46.047l-3.32-4.98 1.38-.921 3.32 4.98-1.38.921M9.354 39.038l-.922-1.382 4.98-3.32.922 1.381-4.98 3.32"/>
        <path d="M7.602 36.825a1.661 1.661 0 1 0 1.66 1.66c0-.915-.744-1.66-1.66-1.66zm0 4.981a3.324 3.324 0 0 1-3.32-3.32c0-1.83 1.489-3.32 3.32-3.32 1.831 0 3.32 1.49 3.32 3.32 0 1.83-1.489 3.32-3.32 3.32zM15.903 45.126a1.661 1.661 0 1 0 1.66 1.66c0-.915-.744-1.66-1.66-1.66zm0 4.981a3.324 3.324 0 0 1-3.32-3.32c0-1.83 1.489-3.32 3.32-3.32 1.831 0 3.32 1.49 3.32 3.32 0 1.83-1.489 3.32-3.32 3.32zM26.694 47.617h1.66v-5.811h-1.66z"/>
        <path d="M17.284 46.047l-1.381-.92 3.32-4.981 1.382.92-3.32 4.981M27.524 48.447a1.661 1.661 0 1 0 1.66 1.66c0-.916-.744-1.66-1.66-1.66zm0 4.98a3.324 3.324 0 0 1-3.32-3.32c0-1.83 1.49-3.32 3.32-3.32 1.832 0 3.32 1.49 3.32 3.32 0 1.831-1.488 3.32-3.32 3.32zM27.524 15.243c-6.408 0-11.621 5.214-11.621 11.621 0 6.409 5.213 11.622 11.621 11.622 6.409 0 11.622-5.213 11.622-11.622 0-6.407-5.213-11.621-11.622-11.621zm0 24.903c-7.323 0-13.281-5.958-13.281-13.282 0-7.323 5.958-13.281 13.281-13.281 7.324 0 13.282 5.958 13.282 13.281 0 7.324-5.958 13.282-13.282 13.282z"/>
        <path d="M15.073 27.694h24.903v-1.66H15.073zM17.563 20.223h19.923v-1.66H17.563zM17.563 35.165h19.923v-1.66H17.563z"/>
        <path d="M27.524 15.243c-3.149 0-5.81 5.322-5.81 11.621 0 6.3 2.661 11.622 5.81 11.622 3.15 0 5.811-5.322 5.811-11.622 0-6.299-2.661-11.621-5.81-11.621zm0 24.903c-4.19 0-7.47-5.833-7.47-13.282 0-7.447 3.28-13.281 7.47-13.281 4.19 0 7.471 5.834 7.471 13.281 0 7.449-3.281 13.282-7.47 13.282z"/>
        <path d="M26.694 39.316h1.66V14.413h-1.66z"/>
    </g>
</svg>
