<svg xmlns="http://www.w3.org/2000/svg" width="115" height="115" viewBox="0 0 115 115">
    <g fill="#A9A2AA" fill-rule="evenodd">
        <path d="M12.682 59.227h12.532v-3.581H12.682z"/>
        <path d="M7.311 53.856a3.584 3.584 0 0 0-3.58 3.58 3.584 3.584 0 0 0 3.58 3.58 3.584 3.584 0 0 0 3.58-3.58 3.584 3.584 0 0 0-3.58-3.58zm0 10.741a7.168 7.168 0 0 1-7.161-7.16 7.168 7.168 0 0 1 7.161-7.162 7.168 7.168 0 0 1 7.161 7.161 7.168 7.168 0 0 1-7.16 7.161zM27.004 44.303l-10.742-7.161 1.988-2.98 10.741 7.162-1.987 2.979"/>
        <path d="M14.472 28.792a3.584 3.584 0 0 0-3.58 3.58 3.584 3.584 0 0 0 3.58 3.58 3.584 3.584 0 0 0 3.58-3.58 3.584 3.584 0 0 0-3.58-3.58zm0 10.741a7.168 7.168 0 0 1-7.16-7.16 7.168 7.168 0 0 1 7.16-7.162 7.168 7.168 0 0 1 7.161 7.161 7.168 7.168 0 0 1-7.16 7.161zM32.375 10.889a3.584 3.584 0 0 0-3.58 3.58 3.584 3.584 0 0 0 3.58 3.581 3.584 3.584 0 0 0 3.58-3.58 3.584 3.584 0 0 0-3.58-3.581zm0 10.742a7.168 7.168 0 0 1-7.161-7.162 7.168 7.168 0 0 1 7.161-7.16 7.168 7.168 0 0 1 7.161 7.16 7.168 7.168 0 0 1-7.161 7.162z"/>
        <path d="M39.536 30.779l-7.161-10.742 2.98-1.987 7.16 10.742-2.979 1.987M89.664 59.227h12.532v-3.581H89.664z"/>
        <path d="M107.567 53.856a3.584 3.584 0 0 0-3.58 3.58 3.584 3.584 0 0 0 3.58 3.58 3.584 3.584 0 0 0 3.58-3.58 3.584 3.584 0 0 0-3.58-3.58zm0 10.741a7.168 7.168 0 0 1-7.161-7.16 7.168 7.168 0 0 1 7.16-7.162 7.168 7.168 0 0 1 7.162 7.161 7.168 7.168 0 0 1-7.161 7.161zM86.28 44.303l-1.987-2.98 10.742-7.16 1.987 2.979-10.742 7.16"/>
        <path d="M100.406 28.792a3.584 3.584 0 0 0-3.58 3.58 3.584 3.584 0 0 0 3.58 3.58 3.584 3.584 0 0 0 3.58-3.58 3.584 3.584 0 0 0-3.58-3.58zm0 10.741a7.168 7.168 0 0 1-7.161-7.16 7.168 7.168 0 0 1 7.16-7.162 7.168 7.168 0 0 1 7.162 7.161 7.168 7.168 0 0 1-7.161 7.161zM82.503 10.889a3.584 3.584 0 0 0-3.58 3.58 3.584 3.584 0 0 0 3.58 3.581 3.584 3.584 0 0 0 3.58-3.58 3.584 3.584 0 0 0-3.58-3.581zm0 10.742a7.168 7.168 0 0 1-7.161-7.162 7.168 7.168 0 0 1 7.161-7.16 7.168 7.168 0 0 1 7.161 7.16 7.168 7.168 0 0 1-7.161 7.162zM55.649 25.211h3.58V12.68h-3.58z"/>
        <path d="M74.74 30.779l-2.979-1.987 7.161-10.742 2.98 1.987L74.74 30.78M57.439 3.728a3.584 3.584 0 0 0-3.58 3.58 3.584 3.584 0 0 0 3.58 3.58 3.584 3.584 0 0 0 3.58-3.58 3.584 3.584 0 0 0-3.58-3.58zm0 10.741a7.168 7.168 0 0 1-7.161-7.16A7.168 7.168 0 0 1 57.439.146 7.168 7.168 0 0 1 64.6 7.308a7.168 7.168 0 0 1-7.161 7.161zM95.035 83.689l-10.742-7.161 1.987-2.98 10.742 7.162-1.987 2.979"/>
        <path d="M100.406 78.92a3.584 3.584 0 0 0-3.58 3.58 3.584 3.584 0 0 0 3.58 3.58 3.584 3.584 0 0 0 3.58-3.58 3.584 3.584 0 0 0-3.58-3.58zm0 10.741a7.168 7.168 0 0 1-7.161-7.16 7.168 7.168 0 0 1 7.16-7.162 7.168 7.168 0 0 1 7.162 7.161 7.168 7.168 0 0 1-7.161 7.161zM82.503 96.822a3.584 3.584 0 0 0-3.58 3.581 3.584 3.584 0 0 0 3.58 3.58 3.584 3.584 0 0 0 3.58-3.58 3.584 3.584 0 0 0-3.58-3.58zm0 10.742a7.168 7.168 0 0 1-7.161-7.161 7.168 7.168 0 0 1 7.161-7.161 7.168 7.168 0 0 1 7.161 7.161 7.168 7.168 0 0 1-7.161 7.161z"/>
        <path d="M78.922 98.81l-7.16-10.742 2.978-1.987 7.161 10.741-2.979 1.988M18.25 83.689l-1.988-2.98 10.742-7.16 1.987 2.979-10.741 7.16"/>
        <path d="M14.472 78.92a3.584 3.584 0 0 0-3.58 3.58 3.584 3.584 0 0 0 3.58 3.58 3.584 3.584 0 0 0 3.58-3.58 3.584 3.584 0 0 0-3.58-3.58zm0 10.741a7.168 7.168 0 0 1-7.16-7.16 7.168 7.168 0 0 1 7.16-7.162 7.168 7.168 0 0 1 7.161 7.161 7.168 7.168 0 0 1-7.16 7.161zM32.375 96.822a3.584 3.584 0 0 0-3.58 3.581 3.584 3.584 0 0 0 3.58 3.58 3.584 3.584 0 0 0 3.58-3.58 3.584 3.584 0 0 0-3.58-3.58zm0 10.742a7.168 7.168 0 0 1-7.161-7.161 7.168 7.168 0 0 1 7.161-7.161 7.168 7.168 0 0 1 7.161 7.161 7.168 7.168 0 0 1-7.161 7.161zM55.649 102.193h3.58V89.661h-3.58z"/>
        <path d="M35.354 98.81l-2.979-1.988 7.161-10.741 2.98 1.987-7.162 10.742M57.439 103.984a3.584 3.584 0 0 0-3.58 3.58 3.584 3.584 0 0 0 3.58 3.58 3.584 3.584 0 0 0 3.58-3.58 3.584 3.584 0 0 0-3.58-3.58zm0 10.741a7.168 7.168 0 0 1-7.161-7.16 7.168 7.168 0 0 1 7.161-7.162 7.168 7.168 0 0 1 7.161 7.161 7.168 7.168 0 0 1-7.161 7.161zM57.439 73.549c-4.936 0-8.951-4.016-8.951-8.952h3.58c0 2.961 2.41 5.371 5.371 5.371 2.961 0 5.37-2.41 5.37-5.37 0-2.407-1.915-3.467-5.302-5.13l-1.717-.85c-3.423-1.681-7.302-3.59-7.302-8.343 0-4.936 4.015-8.951 8.951-8.951 4.936 0 8.951 4.015 8.951 8.951h-3.58c0-2.961-2.41-5.37-5.371-5.37a5.377 5.377 0 0 0-5.37 5.37c0 2.406 1.915 3.466 5.302 5.13l1.717.85c3.423 1.68 7.302 3.59 7.302 8.342 0 4.936-4.015 8.952-8.951 8.952"/>
        <path d="M55.649 43.114h3.58v-5.37h-3.58zM55.649 77.13h3.58v-5.372h-3.58zM41.326 59.227h3.581v-3.581h-3.58zM69.971 59.227h3.58v-3.581h-3.58z"/>
        <path d="M57.439 32.372c-13.821 0-25.064 11.243-25.064 25.064S43.618 82.5 57.439 82.5s25.064-11.243 25.064-25.064c0-13.82-11.243-25.064-25.064-25.064zm0 53.709c-15.794 0-28.645-12.85-28.645-28.645 0-15.794 12.851-28.644 28.645-28.644 15.794 0 28.645 12.85 28.645 28.644 0 15.794-12.851 28.645-28.645 28.645z"/>
    </g>
</svg>
