<svg xmlns="http://www.w3.org/2000/svg" width="81" height="80" viewBox="0 0 81 80">
    <g fill="#A9A2AA" fill-rule="evenodd">
        <path d="M40.596 20.576c-11.067 0-20.07 8.785-20.07 19.583 0 10.798 9.003 19.584 20.07 19.584 11.066 0 20.07-8.786 20.07-19.584s-9.004-19.583-20.07-19.583zm0 41.614c-12.45 0-22.58-9.883-22.58-22.031s10.13-22.031 22.58-22.031c12.45 0 22.58 9.883 22.58 22.031S53.045 62.19 40.595 62.19z"/>
        <path d="M40.596 13.232c-15.218 0-27.597 12.08-27.597 26.927 0 14.848 12.38 26.927 27.597 26.927S68.193 55.007 68.193 40.16c0-14.848-12.38-26.927-27.597-26.927zm0 56.302c-16.6 0-30.106-13.178-30.106-29.375s13.506-29.375 30.106-29.375 30.106 13.178 30.106 29.375-13.507 29.375-30.106 29.375z"/>
        <path d="M40.596 3.44c-20.75 0-37.633 16.472-37.633 36.719s16.882 36.72 37.633 36.72c20.75 0 37.632-16.473 37.632-36.72S61.346 3.439 40.596 3.439zm0 75.886C18.462 79.326.455 61.756.455 40.159S18.462.992 40.595.992c22.135 0 40.142 17.57 40.142 39.167S62.73 79.326 40.596 79.326z"/>
        <path d="M39.341 12.008h2.51V.992h-2.51zM13.886 67.952l-1.774-1.731 7.526-7.344 1.774 1.73-7.526 7.345M19.638 21.44l-7.526-7.343 1.774-1.73 7.526 7.343-1.774 1.73M11.744 21.8h2.51v-2.448h-2.51zM9.235 26.695h2.51v-2.448h-2.51zM6.727 31.591h2.508v-2.448H6.727zM5.472 36.487h2.509V34.04H5.472zM5.472 41.383h2.509v-2.448H5.472zM5.472 46.279h2.509V43.83H5.472zM6.727 51.175h2.508v-2.448H6.727zM9.235 56.07h2.51v-2.447h-2.51zM11.744 60.967h2.51v-2.448h-2.51zM39.341 53.623h2.51V49.95h-2.51zM39.341 30.367h2.51v-3.672h-2.51z"/>
        <path d="M40.596 51.175c-3.459 0-6.272-2.746-6.272-6.12h2.508c0 2.024 1.689 3.672 3.764 3.672 2.075 0 3.763-1.648 3.763-3.672 0-1.298-2.553-3.022-4.278-3.78-.587-.257-5.757-2.614-5.757-6.012 0-3.374 2.813-6.12 6.272-6.12 3.458 0 6.272 2.746 6.272 6.12h-2.51c0-2.024-1.687-3.672-3.762-3.672s-3.764 1.648-3.764 3.672c0 1.298 2.553 3.022 4.278 3.78.587.257 5.758 2.614 5.758 6.012 0 3.374-2.814 6.12-6.272 6.12M26.797 41.383h2.509v-2.448h-2.509zM51.885 41.383h2.51v-2.448h-2.51zM67.306 67.952l-7.527-7.344 1.774-1.73 7.527 7.343-1.774 1.73"/>
    </g>
</svg>
