<svg xmlns="http://www.w3.org/2000/svg" width="115" height="107" viewBox="0 0 115 107">
    <g fill="#A9A2AA" fill-rule="evenodd">
        <path d="M112.64 106.943H16.535a1.78 1.78 0 0 1-1.78-1.78v-7.119h3.56v5.34h92.547V60.668h-5.34v-3.56h7.12c.982 0 1.78.798 1.78 1.78v46.274a1.78 1.78 0 0 1-1.78 1.78"/>
        <path d="M105.522 99.824H9.415a1.78 1.78 0 0 1-1.78-1.78v-7.119h3.56v5.34h92.547V53.55h-5.34v-3.56h7.12c.982 0 1.78.798 1.78 1.78v46.274a1.78 1.78 0 0 1-1.78 1.78"/>
        <path d="M4.076 89.145h92.547V46.431H4.076v42.714zm94.327 3.56H2.296a1.78 1.78 0 0 1-1.78-1.78V44.651c0-.982.797-1.78 1.78-1.78h96.107c.982 0 1.78.798 1.78 1.78v46.274a1.78 1.78 0 0 1-1.78 1.78z"/>
        <path d="M15.491 82.026h69.717l4.296-4.296V57.846l-4.296-4.296H15.49l-4.296 4.296V77.73l4.296 4.296zm70.453 3.56h-71.19c-.471 0-.925-.187-1.258-.522l-5.34-5.339a1.775 1.775 0 0 1-.52-1.258V57.11c0-.472.186-.926.52-1.259l5.34-5.339a1.775 1.775 0 0 1 1.258-.521h71.19c.472 0 .926.186 1.259.521l5.339 5.34c.335.332.521.786.521 1.258v21.357c0 .471-.186.925-.521 1.258l-5.34 5.34a1.775 1.775 0 0 1-1.258.52z"/>
        <path d="M28.992 69.568h3.56v-3.56h-3.56zM21.873 69.568h3.56v-3.56h-3.56zM75.266 69.568h3.56v-3.56h-3.56zM68.147 69.568h3.56v-3.56h-3.56zM50.35 60.67a7.126 7.126 0 0 0-7.12 7.118 7.126 7.126 0 0 0 7.12 7.12 7.126 7.126 0 0 0 7.118-7.12 7.126 7.126 0 0 0-7.119-7.119zm0 17.797c-5.89 0-10.68-4.79-10.68-10.679 0-5.89 4.79-10.678 10.68-10.678 5.889 0 10.678 4.789 10.678 10.678 0 5.89-4.79 10.679-10.679 10.679zM40.929 38.79c-.456 0-.911-.174-1.258-.52l-7.12-7.12 2.517-2.517 5.861 5.861 5.86-5.86 2.517 2.516-7.119 7.12a1.775 1.775 0 0 1-1.258.52M72.965 38.79c-.456 0-.912-.174-1.259-.52l-7.119-7.12 2.517-2.517 5.86 5.861 5.861-5.86 2.517 2.516-7.119 7.12a1.775 1.775 0 0 1-1.258.52M62.808 10.315l-5.861-5.86-5.86 5.86-2.517-2.517L55.689.68a1.778 1.778 0 0 1 2.516 0l7.12 7.12-2.517 2.516"/>
        <path d="M43.23 37.532h-3.56V19.735H.517v-3.56h40.935c.982 0 1.78.798 1.78 1.78v19.577M75.266 37.532h-3.56V17.955c0-.982.798-1.78 1.78-1.78h40.935v3.56H75.266v17.797M55.689 39.312h3.56V1.937h-3.56z"/>
    </g>
</svg>
